<svg width="30" height="22" viewBox="0 0 30 22" fill="none" xmlns="http://www.w3.org/2000/svg">
<path d="M3 0.5625H27C27.6465 0.5625 28.2665 0.819247 28.7236 1.27637C29.1808 1.73349 29.4375 2.35353 29.4375 3V19C29.4375 19.6465 29.1808 20.2665 28.7236 20.7236C28.2665 21.1808 27.6465 21.4375 27 21.4375H3C2.35353 21.4375 1.73349 21.1808 1.27637 20.7236C0.819247 20.2665 0.5625 19.6465 0.5625 19V3C0.5625 2.35353 0.819247 1.73349 1.27637 1.27637C1.73349 0.819247 2.35353 0.5625 3 0.5625ZM3.4375 18.5625H26.5625V8.9375H3.4375V18.5625ZM13.5 14.0625H15C15.3812 14.0625 15.747 14.2138 16.0166 14.4834C16.2862 14.753 16.4375 15.1188 16.4375 15.5C16.4375 15.8812 16.2862 16.247 16.0166 16.5166C15.747 16.7862 15.3812 16.9375 15 16.9375H13.5C13.1188 16.9375 12.753 16.7862 12.4834 16.5166C12.2138 16.247 12.0625 15.8812 12.0625 15.5C12.0625 15.1188 12.2138 14.753 12.4834 14.4834C12.753 14.2138 13.1188 14.0625 13.5 14.0625ZM19.5 14.0625H23.5C23.8812 14.0625 24.247 14.2138 24.5166 14.4834C24.7862 14.753 24.9375 15.1188 24.9375 15.5C24.9375 15.8812 24.7862 16.247 24.5166 16.5166C24.247 16.7862 23.8812 16.9375 23.5 16.9375H19.5C19.1188 16.9375 18.753 16.7862 18.4834 16.5166C18.2138 16.247 18.0625 15.8812 18.0625 15.5C18.0625 15.1188 18.2138 14.753 18.4834 14.4834C18.753 14.2138 19.1188 14.0625 19.5 14.0625ZM3.4375 6.0625H26.5625V3.4375H3.4375V6.0625Z" fill="black" stroke="#011628" stroke-width="0.125"/>
</svg>
