<svg width="64" height="64" viewBox="0 0 64 64" fill="none" xmlns="http://www.w3.org/2000/svg">
<rect width="64" height="64" rx="32" fill="#1F557C"/>
<path d="M32 3.7041C35.7158 3.70416 39.3962 4.43643 42.8291 5.8584C46.2619 7.28041 49.3814 9.36483 52.0088 11.9922C54.6361 14.6196 56.7206 17.739 58.1426 21.1719C58.5866 22.2439 58.9623 23.3404 59.2705 24.4541H51.1426C48.0067 16.9752 40.6176 11.7219 32 11.7217C20.54 11.7219 11.2501 21.0117 11.25 32.4717C11.2502 43.9316 20.5401 53.2224 32 53.2227C42.3362 53.2224 50.9066 45.6641 52.4883 35.7734L32 35.7725L31.9697 35.7734V28.2275H60.041C60.2089 29.4753 60.2969 30.7355 60.2969 32C60.2968 35.7158 59.5646 39.3961 58.1426 42.8291C56.7206 46.262 54.6362 49.3813 52.0088 52.0088C49.3814 54.6362 46.262 56.7206 42.8291 58.1426C39.3962 59.5645 35.7158 60.2968 32 60.2969C28.2844 60.2968 24.6047 59.5644 21.1719 58.1426C17.739 56.7206 14.6196 54.6361 11.9922 52.0088C9.36482 49.3814 7.28041 46.2619 5.8584 42.8291C4.43642 39.3961 3.70415 35.7158 3.7041 32C3.70415 28.2843 4.43647 24.6048 5.8584 21.1719C7.28042 17.7389 9.36467 14.6197 11.9922 11.9922C14.6197 9.36468 17.7389 7.28041 21.1719 5.8584C24.6047 4.43649 28.2843 3.70415 32 3.7041Z" fill="white"/>
<path d="M32 15.0225C38.6656 15.0225 44.4327 18.8643 47.2109 24.4541H37.8428C36.2404 23.2137 34.2311 22.4738 32.0479 22.4736C26.8126 22.4736 22.5684 26.7179 22.5684 31.9531C22.5685 37.1882 26.8127 41.4326 32.0479 41.4326C34.1753 41.4325 36.1376 40.7298 37.7188 39.5459H47.209C44.4306 45.1351 38.6653 48.9775 32 48.9775C22.6236 48.9774 15.0226 41.3764 15.0225 32C15.0226 22.6236 22.6236 15.0226 32 15.0225Z" fill="white"/>
</svg>
