<svg width="36" height="32" viewBox="0 0 36 32" fill="none" xmlns="http://www.w3.org/2000/svg">
<path d="M35.4719 18.5312L33.5969 3.53125C33.4827 2.62482 33.0415 1.79125 32.3562 1.18707C31.6709 0.582902 30.7886 0.249687 29.875 0.25H3C2.33696 0.25 1.70107 0.513392 1.23223 0.982233C0.763392 1.45107 0.5 2.08696 0.5 2.75V16.5C0.5 17.163 0.763392 17.7989 1.23223 18.2678C1.70107 18.7366 2.33696 19 3 19H9.72813L15.6313 30.8094C15.7352 31.017 15.8949 31.1917 16.0925 31.3137C16.2901 31.4356 16.5178 31.5002 16.75 31.5C18.4076 31.5 19.9973 30.8415 21.1694 29.6694C22.3415 28.4973 23 26.9076 23 25.25V22.75H31.75C32.2821 22.7502 32.8082 22.6371 33.2933 22.4183C33.7784 22.1995 34.2113 21.8799 34.5634 21.4809C34.9154 21.0818 35.1785 20.6124 35.3351 20.1039C35.4918 19.5953 35.5384 19.0592 35.4719 18.5312ZM9.25 16.5H3V2.75H9.25V16.5ZM32.6875 19.8266C32.571 19.9606 32.4269 20.0678 32.2651 20.1409C32.1033 20.214 31.9276 20.2512 31.75 20.25H21.75C21.4185 20.25 21.1005 20.3817 20.8661 20.6161C20.6317 20.8505 20.5 21.1685 20.5 21.5V25.25C20.5002 26.117 20.2001 26.9573 19.6505 27.6279C19.101 28.2985 18.3361 28.758 17.4859 28.9281L11.75 17.4547V2.75H29.875C30.1795 2.7499 30.4736 2.86097 30.7021 3.06236C30.9305 3.26375 31.0776 3.54161 31.1156 3.84375L32.9906 18.8438C33.014 19.0197 32.9991 19.1987 32.9468 19.3684C32.8944 19.538 32.806 19.6943 32.6875 19.8266Z" fill="#F00000"/>
</svg>
