<svg width="36" height="32" viewBox="0 0 36 32" fill="none" xmlns="http://www.w3.org/2000/svg">
<path d="M34.5625 10.5188C34.2105 10.1199 33.7777 9.80047 33.2928 9.58172C32.8079 9.36297 32.282 9.24989 31.75 9.25H23V6.75C23 5.0924 22.3415 3.50269 21.1694 2.33058C19.9973 1.15848 18.4076 0.5 16.75 0.5C16.5178 0.499834 16.2901 0.564361 16.0925 0.686346C15.8949 0.808331 15.7352 0.982951 15.6312 1.19063L9.72812 13H3C2.33696 13 1.70107 13.2634 1.23223 13.7322C0.763392 14.2011 0.5 14.837 0.5 15.5V29.25C0.5 29.913 0.763392 30.5489 1.23223 31.0178C1.70107 31.4866 2.33696 31.75 3 31.75H29.875C30.7886 31.7503 31.6709 31.4171 32.3562 30.8129C33.0415 30.2088 33.4827 29.3752 33.5969 28.4688L35.4719 13.4688C35.5383 12.9407 35.4916 12.4045 35.3348 11.8958C35.178 11.3872 34.9147 10.9178 34.5625 10.5188ZM3 15.5H9.25V29.25H3V15.5ZM32.9906 13.1562L31.1156 28.1562C31.0776 28.4584 30.9305 28.7363 30.7021 28.9376C30.4736 29.139 30.1795 29.2501 29.875 29.25H11.75V14.5453L17.4859 3.07188C18.3361 3.24202 19.101 3.70149 19.6505 4.3721C20.2001 5.0427 20.5002 5.883 20.5 6.75V10.5C20.5 10.8315 20.6317 11.1495 20.8661 11.3839C21.1005 11.6183 21.4185 11.75 21.75 11.75H31.75C31.9274 11.7499 32.1027 11.7876 32.2644 11.8606C32.4261 11.9335 32.5704 12.04 32.6878 12.173C32.8051 12.3061 32.8928 12.4625 32.945 12.632C32.9973 12.8016 33.0128 12.9803 32.9906 13.1562Z" fill="#2B9847"/>
</svg>
