<svg width="52" height="38" viewBox="0 0 52 38" fill="none" xmlns="http://www.w3.org/2000/svg">
<rect width="52" height="38" fill="#1E1E1E"/>
<g clip-path="url(#clip0_28_2)">
<rect width="1440" height="2232" transform="translate(-158 -860)" fill="white"/>
<rect width="580" height="280" transform="translate(-30 -38)" fill="#EEEEEE"/>
<path opacity="0.2" d="M21 4V22H4C3.46957 22 2.96086 21.7893 2.58579 21.4142C2.21071 21.0391 2 20.5304 2 20V4C2 3.46957 2.21071 2.96086 2.58579 2.58579C2.96086 2.21071 3.46957 2 4 2H19C19.5304 2 20.0391 2.21071 20.4142 2.58579C20.7893 2.96086 21 3.46957 21 4ZM48 2H33C32.4696 2 31.9609 2.21071 31.5858 2.58579C31.2107 2.96086 31 3.46957 31 4V20C31 20.5304 31.2107 21.0391 31.5858 21.4142C31.9609 21.7893 32.4696 22 33 22H50V4C50 3.46957 49.7893 2.96086 49.4142 2.58579C49.0391 2.21071 48.5304 2 48 2Z" fill="black"/>
<path d="M19 0H4C2.93913 0 1.92172 0.421427 1.17157 1.17157C0.421427 1.92172 0 2.93913 0 4V20C0 21.0609 0.421427 22.0783 1.17157 22.8284C1.92172 23.5786 2.93913 24 4 24H19V26C19 28.1217 18.1571 30.1566 16.6569 31.6569C15.1566 33.1571 13.1217 34 11 34C10.4696 34 9.96086 34.2107 9.58579 34.5858C9.21071 34.9609 9 35.4696 9 36C9 36.5304 9.21071 37.0391 9.58579 37.4142C9.96086 37.7893 10.4696 38 11 38C14.1816 37.9967 17.2319 36.7313 19.4816 34.4816C21.7313 32.2319 22.9967 29.1816 23 26V4C23 2.93913 22.5786 1.92172 21.8284 1.17157C21.0783 0.421427 20.0609 0 19 0ZM19 20H4V4H19V20ZM48 0H33C31.9391 0 30.9217 0.421427 30.1716 1.17157C29.4214 1.92172 29 2.93913 29 4V20C29 21.0609 29.4214 22.0783 30.1716 22.8284C30.9217 23.5786 31.9391 24 33 24H48V26C48 28.1217 47.1571 30.1566 45.6569 31.6569C44.1566 33.1571 42.1217 34 40 34C39.4696 34 38.9609 34.2107 38.5858 34.5858C38.2107 34.9609 38 35.4696 38 36C38 36.5304 38.2107 37.0391 38.5858 37.4142C38.9609 37.7893 39.4696 38 40 38C43.1816 37.9967 46.2319 36.7313 48.4816 34.4816C50.7313 32.2319 51.9967 29.1816 52 26V4C52 2.93913 51.5786 1.92172 50.8284 1.17157C50.0783 0.421427 49.0609 0 48 0ZM48 20H33V4H48V20Z" fill="black"/>
</g>
<defs>
<clipPath id="clip0_28_2">
<rect width="1440" height="2232" fill="white" transform="translate(-158 -860)"/>
</clipPath>
</defs>
</svg>
